<svg width="86" height="44" viewBox="0 0 86 44" fill="none" xmlns="http://www.w3.org/2000/svg">
<rect width="85.8462" height="44" rx="3" fill="#1A1A1A"/>
<path d="M29.6797 23.3235C28.9417 22.9305 28.5624 22.5992 28.5624 22.1438C28.5624 21.5644 29.0893 21.1922 29.9121 21.1922C30.8698 21.1922 31.725 21.5852 31.725 21.5852L32.3995 19.5572C32.3995 19.5572 31.7793 19.0811 29.9538 19.0811C27.4134 19.0811 25.6527 20.5088 25.6527 22.5161C25.6527 23.6541 26.4748 24.5233 27.5716 25.1436C28.4572 25.6399 28.7736 25.992 28.7736 26.5091C28.7736 27.0469 28.3308 27.4815 27.5087 27.4815C26.2835 27.4815 25.1265 26.8605 25.1265 26.8605L24.4097 28.8885C24.4097 28.8885 25.4786 29.592 27.277 29.592C29.8915 29.592 31.768 28.3299 31.768 26.0537C31.7674 24.8338 30.8189 23.9646 29.6797 23.3235Z" fill="white"/>
<path d="M40.0954 19.0609C38.8094 19.0609 37.7973 19.6611 37.0176 20.5712L36.9752 20.5504L38.0925 14.8191H35.1828L32.3578 29.4062H35.2675L36.2372 24.42C36.6165 22.5368 37.6073 21.3786 38.5353 21.3786C39.1886 21.3786 39.4421 21.8132 39.4421 22.4342C39.4421 22.8272 39.3998 23.3033 39.3157 23.6963L38.2196 29.4068H41.1293L42.2678 23.5099C42.3942 22.8889 42.4789 22.1445 42.4789 21.6475C42.4776 20.0333 41.6132 19.0609 40.0954 19.0609Z" fill="white"/>
<path d="M49.0556 19.0608C45.5555 19.0608 43.2368 22.1645 43.2368 25.6197C43.2368 27.8334 44.6281 29.6127 47.2427 29.6127C50.6793 29.6127 52.9986 26.5921 52.9986 23.0538C52.9986 21.0056 51.7754 19.0608 49.0556 19.0608ZM47.6219 27.4203C46.6311 27.4203 46.2094 26.5927 46.2094 25.5579C46.2094 23.9236 47.0739 21.2544 48.6552 21.2544C49.6884 21.2544 50.0253 22.1236 50.0253 22.9719C50.0253 24.7304 49.1615 27.4203 47.6219 27.4203Z" fill="white"/>
<path d="M60.4411 19.0608C58.4772 19.0608 57.3626 20.7575 57.3626 20.7575H57.3209L57.4896 19.2264H54.9175C54.7911 20.2612 54.5587 21.8332 54.3271 23.0129L52.303 33.4614H55.2127L56.0136 29.2404H56.0772C56.0772 29.2404 56.6742 29.6127 57.7849 29.6127C61.2003 29.6127 63.4349 26.1783 63.4349 22.7017C63.4349 20.7783 62.5704 19.0608 60.4411 19.0608ZM57.6578 27.4612C56.9025 27.4612 56.4558 27.0474 56.4558 27.0474L56.9409 24.3783C57.2785 22.5991 58.227 21.4194 59.2391 21.4194C60.1247 21.4194 60.3987 22.2262 60.3987 22.9921C60.3987 24.8337 59.2814 27.4612 57.6578 27.4612Z" fill="white"/>
<path d="M67.5882 14.9639C66.6609 14.9639 65.9229 15.6882 65.9229 16.619C65.9229 17.4674 66.4709 18.0468 67.293 18.0468H67.3353C68.2422 18.0468 69.0219 17.4466 69.0431 16.3917C69.0431 15.5641 68.4738 14.9639 67.5882 14.9639Z" fill="white"/>
<path d="M63.5195 29.4061H66.4286L68.411 19.2888H65.4801L63.5195 29.4061Z" fill="white"/>
<path d="M75.8111 19.2681H73.787L73.8923 18.792C74.0611 17.8196 74.6515 16.9504 75.6212 16.9504C76.1388 16.9504 76.5485 17.0953 76.5485 17.0953L77.1177 14.8607C77.1177 14.8607 76.612 14.6125 75.5364 14.6125C74.5032 14.6125 73.4706 14.9023 72.6903 15.5642C71.6994 16.3918 71.2354 17.5915 71.0037 18.792L70.9197 19.2681H69.57L69.1484 21.4202H70.498L68.9591 29.4069H71.8688L73.4078 21.4202H75.4107L75.8111 19.2681Z" fill="white"/>
<path d="M82.8107 19.289C82.8107 19.289 80.9918 23.7861 80.175 26.2408H80.1326C80.077 25.4503 79.4158 19.289 79.4158 19.289H76.3585L78.1092 28.5787C78.1515 28.7853 78.1304 28.91 78.0456 29.0548C77.7081 29.696 77.1388 30.317 76.4644 30.7723C75.9163 31.1653 75.3047 31.4135 74.8202 31.5791L75.6211 34.0001C76.2115 33.8761 77.434 33.3999 78.4673 32.4483C79.7957 31.2277 81.0183 29.3446 82.2831 26.7787L85.8462 19.2883H82.8107V19.289Z" fill="white"/>
<path d="M15.1617 33.5494L21.2505 32.0644C21.2505 32.0644 18.629 14.6704 18.6123 14.5511C18.5956 14.4317 18.4894 14.3655 18.4012 14.3583C18.3137 14.3511 16.5994 14.3255 16.5994 14.3255C16.5994 14.3255 15.5546 13.3296 15.1617 12.9526V33.5494Z" fill="white"/>
<path d="M14.4991 12.7541C14.4977 12.7547 14.2298 12.836 13.7789 12.9731C13.7034 12.7331 13.5925 12.4381 13.4342 12.1417C12.9238 11.1858 12.1762 10.6803 11.273 10.679C11.2716 10.679 11.271 10.679 11.2696 10.679C11.2068 10.679 11.1447 10.6849 11.0819 10.6901C11.0552 10.6587 11.0285 10.6279 11.0004 10.5977C10.6069 10.1847 10.1025 9.98337 9.49792 10.0011C8.33147 10.0339 7.1697 10.8606 6.22773 12.3292C5.565 13.3625 5.06061 14.6607 4.91765 15.6658C3.57817 16.0729 2.64154 16.3575 2.62083 16.364C1.94474 16.5725 1.92337 16.5928 1.83518 17.2183C1.76904 17.691 0 31.1158 0 31.1158L14.6768 33.6066V12.7246C14.6046 12.7292 14.5398 12.7423 14.4991 12.7541ZM11.11 13.7841C10.333 14.0201 9.48522 14.2778 8.63477 14.5361C8.87394 13.6372 9.32756 12.7423 9.88473 12.1555C10.0918 11.9372 10.3818 11.6939 10.7252 11.5549C11.0478 12.2158 11.118 13.1514 11.11 13.7841ZM9.52063 10.7629C9.79454 10.757 10.025 10.816 10.2221 10.9432C9.90677 11.1039 9.60213 11.3346 9.3162 11.6356C8.57531 12.4158 8.00746 13.6267 7.78098 14.7951C7.07484 15.0095 6.38405 15.2199 5.74805 15.4127C6.14956 13.5736 7.72019 10.8141 9.52063 10.7629ZM7.25121 21.2393C7.33004 22.4647 10.6149 22.7322 10.7993 25.6026C10.9443 27.8606 9.57875 29.4052 7.61129 29.5272C5.24967 29.6734 3.94962 28.3057 3.94962 28.3057L4.45 26.2162C4.45 26.2162 5.75874 27.1853 6.80627 27.1204C7.49037 27.0777 7.73489 26.5316 7.71017 26.1454C7.60729 24.547 4.93234 24.6414 4.76332 22.0149C4.62102 19.8048 6.10013 17.5651 9.36364 17.3632C10.6209 17.2852 11.265 17.6005 11.265 17.6005L10.5187 20.3404C10.5187 20.3404 9.68631 19.9687 8.69958 20.0297C7.25187 20.1195 7.23651 21.0151 7.25121 21.2393ZM11.8856 13.5487C11.8769 12.9691 11.8068 12.1627 11.5315 11.4658C12.4167 11.6303 12.8523 12.6131 13.0367 13.1993C12.6953 13.3022 12.3065 13.4202 11.8856 13.5487Z" fill="white"/>
</svg>
